<svg width="60" height="60" viewBox="0 0 60 60" fill="none" xmlns="http://www.w3.org/2000/svg">
<circle cx="30" cy="30" r="30" fill="#F38E86" fill-opacity="0.7"/>
<circle cx="30" cy="30" r="15" fill="#C32114" fill-opacity="0.66"/>
<path d="M25.9623 35.18C25.2021 35.18 24.5497 34.9877 24.0049 34.603C23.4633 34.2152 23.0462 33.6566 22.7539 32.9272C22.4646 32.1947 22.3199 31.313 22.3199 30.282C22.323 29.2509 22.4692 28.3738 22.7585 27.6506C23.0509 26.9242 23.4679 26.3703 24.0095 25.9886C24.5543 25.607 25.2052 25.4162 25.9623 25.4162C26.7194 25.4162 27.3703 25.607 27.9151 25.9886C28.4598 26.3703 28.8768 26.9242 29.1661 27.6506C29.4585 28.3769 29.6047 29.254 29.6047 30.282C29.6047 31.3161 29.4585 32.1993 29.1661 32.9318C28.8768 33.6612 28.4598 34.2183 27.9151 34.603C27.3734 34.9877 26.7225 35.18 25.9623 35.18ZM25.9623 33.7351C26.5532 33.7351 27.0195 33.4442 27.3611 32.8626C27.7058 32.2778 27.8782 31.4176 27.8782 30.282C27.8782 29.531 27.7997 28.9001 27.6427 28.3892C27.4858 27.8783 27.2642 27.4936 26.9779 27.2351C26.6917 26.9735 26.3532 26.8427 25.9623 26.8427C25.3745 26.8427 24.9098 27.1351 24.5681 27.7198C24.2265 28.3015 24.0542 29.1555 24.0511 30.282C24.048 31.036 24.1234 31.67 24.2773 32.1839C24.4343 32.6979 24.6559 33.0857 24.9421 33.3473C25.2283 33.6058 25.5684 33.7351 25.9623 33.7351ZM31.1385 35V33.7628L34.4209 30.5451C34.7348 30.2281 34.9964 29.9465 35.2057 29.7003C35.4149 29.4541 35.5719 29.2156 35.6765 28.9847C35.7812 28.7539 35.8335 28.5077 35.8335 28.2461C35.8335 27.9476 35.7658 27.6921 35.6304 27.4798C35.495 27.2643 35.3088 27.0981 35.0718 26.9812C34.8348 26.8642 34.5655 26.8058 34.2639 26.8058C33.9531 26.8058 33.6807 26.8704 33.4468 26.9996C33.2129 27.1258 33.0313 27.3059 32.902 27.5398C32.7758 27.7737 32.7128 28.0522 32.7128 28.3754H31.0831C31.0831 27.7752 31.2201 27.2536 31.494 26.8104C31.7679 26.3672 32.1449 26.024 32.625 25.7809C33.1082 25.5378 33.6622 25.4162 34.287 25.4162C34.921 25.4162 35.478 25.5347 35.9581 25.7717C36.4383 26.0086 36.8107 26.3333 37.0753 26.7457C37.3431 27.1581 37.477 27.629 37.477 28.1584C37.477 28.5123 37.4093 28.8601 37.2738 29.2017C37.1384 29.5433 36.8999 29.9219 36.5583 30.3374C36.2197 30.7528 35.7442 31.256 35.1318 31.8469L33.5022 33.5043V33.5689H37.6201V35H31.1385Z" fill="white"/>
</svg>
