<svg width="60" height="61" viewBox="0 0 60 61" fill="none" xmlns="http://www.w3.org/2000/svg">
<circle cx="30" cy="30.5" r="30" fill="#F38E86" fill-opacity="0.7"/>
<circle cx="30" cy="30.5" r="15" fill="#C32114" fill-opacity="0.66"/>
<path d="M25.6703 35.68C24.9101 35.68 24.2577 35.4877 23.7129 35.103C23.1713 34.7152 22.7542 34.1566 22.4619 33.4272C22.1726 32.6947 22.0279 31.813 22.0279 30.782C22.031 29.7509 22.1772 28.8738 22.4665 28.1506C22.7589 27.4242 23.1759 26.8703 23.7176 26.4886C24.2623 26.107 24.9132 25.9162 25.6703 25.9162C26.4274 25.9162 27.0783 26.107 27.6231 26.4886C28.1678 26.8703 28.5849 27.4242 28.8742 28.1506C29.1665 28.8769 29.3127 29.754 29.3127 30.782C29.3127 31.8161 29.1665 32.6993 28.8742 33.4318C28.5849 34.1612 28.1678 34.7183 27.6231 35.103C27.0814 35.4877 26.4305 35.68 25.6703 35.68ZM25.6703 34.2351C26.2612 34.2351 26.7275 33.9442 27.0691 33.3626C27.4138 32.7778 27.5862 31.9176 27.5862 30.782C27.5862 30.031 27.5077 29.4001 27.3507 28.8892C27.1938 28.3783 26.9722 27.9936 26.6859 27.7351C26.3997 27.4735 26.0612 27.3427 25.6703 27.3427C25.0825 27.3427 24.6178 27.6351 24.2761 28.2198C23.9345 28.8015 23.7622 29.6555 23.7591 30.782C23.756 31.536 23.8314 32.17 23.9853 32.6839C24.1423 33.1979 24.3639 33.5857 24.6501 33.8473C24.9363 34.1058 25.2764 34.2351 25.6703 34.2351ZM30.6757 33.7457V32.3839L34.6875 26.0455H35.8231V27.9844H35.1306L32.43 32.2638V32.3377H38.0298V33.7457H30.6757ZM35.186 35.5V33.3303L35.2045 32.7209V26.0455H36.8203V35.5H35.186Z" fill="white"/>
</svg>
