<svg width="60" height="60" viewBox="0 0 60 60" fill="none" xmlns="http://www.w3.org/2000/svg">
<circle cx="30" cy="30" r="30" fill="#F38E86" fill-opacity="0.7"/>
<circle cx="30" cy="30" r="15" fill="#C32114" fill-opacity="0.66"/>
<path d="M26.8764 35.18C26.1162 35.18 25.4637 34.9877 24.919 34.603C24.3773 34.2152 23.9603 33.6566 23.6679 32.9272C23.3786 32.1947 23.234 31.313 23.234 30.282C23.2371 29.2509 23.3832 28.3738 23.6725 27.6506C23.9649 26.9242 24.3819 26.3703 24.9236 25.9886C25.4684 25.607 26.1193 25.4162 26.8764 25.4162C27.6335 25.4162 28.2844 25.607 28.8291 25.9886C29.3739 26.3703 29.7909 26.9242 30.0802 27.6506C30.3726 28.3769 30.5188 29.254 30.5188 30.282C30.5188 31.3161 30.3726 32.1993 30.0802 32.9318C29.7909 33.6612 29.3739 34.2183 28.8291 34.603C28.2875 34.9877 27.6366 35.18 26.8764 35.18ZM26.8764 33.7351C27.4673 33.7351 27.9335 33.4442 28.2752 32.8626C28.6199 32.2778 28.7922 31.4176 28.7922 30.282C28.7922 29.531 28.7137 28.9001 28.5568 28.3892C28.3998 27.8783 28.1782 27.4936 27.892 27.2351C27.6058 26.9735 27.2672 26.8427 26.8764 26.8427C26.2885 26.8427 25.8238 27.1351 25.4822 27.7198C25.1406 28.3015 24.9682 29.1555 24.9652 30.282C24.9621 31.036 25.0375 31.67 25.1914 32.1839C25.3483 32.6979 25.5699 33.0857 25.8561 33.3473C26.1424 33.6058 26.4824 33.7351 26.8764 33.7351ZM35.8981 25.5455V35H34.1854V27.212H34.13L31.9187 28.6246V27.055L34.2685 25.5455H35.8981Z" fill="#FAFAFA"/>
</svg>
