<svg width="60" height="61" viewBox="0 0 60 61" fill="none" xmlns="http://www.w3.org/2000/svg">
<circle cx="30" cy="30.5" r="30" fill="#F38E86" fill-opacity="0.7"/>
<circle cx="30" cy="30.5" r="15" fill="#C32114" fill-opacity="0.66"/>
<path d="M25.7655 35.68C25.0054 35.68 24.3529 35.4877 23.8081 35.103C23.2665 34.7152 22.8495 34.1566 22.5571 33.4272C22.2678 32.6947 22.1231 31.813 22.1231 30.782C22.1262 29.7509 22.2724 28.8738 22.5617 28.1506C22.8541 27.4242 23.2711 26.8703 23.8128 26.4886C24.3575 26.107 25.0084 25.9162 25.7655 25.9162C26.5226 25.9162 27.1736 26.107 27.7183 26.4886C28.2631 26.8703 28.6801 27.4242 28.9694 28.1506C29.2617 28.8769 29.4079 29.754 29.4079 30.782C29.4079 31.8161 29.2617 32.6993 28.9694 33.4318C28.6801 34.1612 28.2631 34.7183 27.7183 35.103C27.1766 35.4877 26.5257 35.68 25.7655 35.68ZM25.7655 34.2351C26.3564 34.2351 26.8227 33.9442 27.1643 33.3626C27.509 32.7778 27.6814 31.9176 27.6814 30.782C27.6814 30.031 27.6029 29.4001 27.4459 28.8892C27.289 28.3783 27.0674 27.9936 26.7812 27.7351C26.4949 27.4735 26.1564 27.3427 25.7655 27.3427C25.1777 27.3427 24.713 27.6351 24.3714 28.2198C24.0297 28.8015 23.8574 29.6555 23.8543 30.782C23.8512 31.536 23.9266 32.17 24.0805 32.6839C24.2375 33.1979 24.4591 33.5857 24.7453 33.8473C25.0315 34.1058 25.3716 34.2351 25.7655 34.2351ZM34.3349 35.6293C33.6701 35.6293 33.0792 35.5154 32.5621 35.2876C32.0482 35.0599 31.6419 34.7429 31.3434 34.3366C31.0449 33.9304 30.8864 33.4611 30.8679 32.9286H32.6037C32.6191 33.1841 32.7037 33.4072 32.8576 33.598C33.0115 33.7857 33.2161 33.9319 33.4716 34.0366C33.727 34.1412 34.0133 34.1935 34.3303 34.1935C34.6688 34.1935 34.9689 34.1351 35.2305 34.0181C35.4921 33.8981 35.6967 33.7319 35.8445 33.5195C35.9922 33.3072 36.0645 33.0625 36.0614 32.7855C36.0645 32.4993 35.9906 32.2469 35.8398 32.0284C35.689 31.8099 35.4705 31.6391 35.1843 31.516C34.9012 31.3929 34.5595 31.3313 34.1594 31.3313H33.3239V30.011H34.1594C34.4888 30.011 34.7765 29.9541 35.0227 29.8402C35.272 29.7263 35.4674 29.5663 35.609 29.3601C35.7506 29.1508 35.8198 28.9092 35.8168 28.6353C35.8198 28.3675 35.7598 28.1352 35.6367 27.9382C35.5167 27.7382 35.3459 27.5827 35.1243 27.4719C34.9058 27.3612 34.6488 27.3058 34.3533 27.3058C34.064 27.3058 33.7963 27.3581 33.5501 27.4627C33.3039 27.5674 33.1054 27.7166 32.9545 27.9105C32.8037 28.1013 32.7237 28.3291 32.7145 28.5938H31.0664C31.0787 28.0644 31.2311 27.5997 31.5234 27.1996C31.8189 26.7964 32.2128 26.4825 32.7053 26.2578C33.1977 26.0301 33.7501 25.9162 34.3626 25.9162C34.9935 25.9162 35.5413 26.0347 36.006 26.2717C36.4738 26.5056 36.8355 26.821 37.0909 27.218C37.3464 27.6151 37.4741 28.0536 37.4741 28.5337C37.4772 29.0662 37.3202 29.5124 37.0032 29.8725C36.6893 30.2326 36.2769 30.468 35.766 30.5788V30.6527C36.4308 30.745 36.9401 30.9912 37.294 31.3913C37.651 31.7884 37.828 32.2823 37.8249 32.8732C37.8249 33.4026 37.6741 33.8765 37.3725 34.2951C37.074 34.7106 36.6616 35.0368 36.1353 35.2738C35.6121 35.5108 35.012 35.6293 34.3349 35.6293Z" fill="white"/>
</svg>
